<?xml version="1.0" standalone="no"?>
<!DOCTYPE svg PUBLIC "-//W3C//DTD SVG 20010904//EN"
 "http://www.w3.org/TR/2001/REC-SVG-20010904/DTD/svg10.dtd">
<svg version="1.0" xmlns="http://www.w3.org/2000/svg"
 width="200.000000pt" height="200.000000pt" viewBox="0 0 200.000000 200.000000"
 preserveAspectRatio="xMidYMid meet">

<g transform="translate(0.000000,200.000000) scale(0.100000,-0.100000)"
fill="#000000" stroke="none">
<path d="M960 1732 c-192 -11 -352 -84 -486 -224 -83 -86 -118 -138 -158 -238
-76 -189 -71 -395 14 -584 92 -202 294 -366 507 -411 87 -19 249 -19 336 0
123 26 292 124 374 218 75 86 143 210 174 317 21 71 18 311 -5 384 -75 249
-279 452 -516 516 -50 13 -182 26 -240 22z m188 -58 c258 -52 465 -257 531
-523 57 -228 -14 -474 -186 -646 -263 -262 -678 -274 -955 -26 -238 214 -299
557 -150 844 68 132 243 284 377 327 126 42 258 50 383 24z"/>
<path d="M876 1534 c-27 -60 -61 -136 -76 -169 -15 -33 -47 -103 -70 -155 -24
-52 -55 -122 -70 -155 -16 -33 -49 -107 -75 -165 -26 -58 -59 -132 -74 -165
-52 -113 -56 -105 49 -105 l91 0 20 48 c11 26 34 80 52 119 l32 73 88 0 88 0
-3 73 -3 72 -52 3 c-29 2 -53 5 -53 8 0 2 17 43 39 91 73 166 72 160 69 357
l-3 180 -49 -110z"/>
<path d="M1080 1449 c1 -183 1 -184 31 -254 17 -38 41 -96 54 -127 l24 -58
-55 0 -54 0 0 -75 0 -75 86 0 85 0 28 -62 c16 -35 40 -89 54 -120 l26 -58 90
0 91 0 -10 24 c-5 14 -22 53 -38 88 -17 35 -49 106 -72 158 -23 52 -52 118
-65 145 -13 28 -46 102 -75 165 -28 63 -64 142 -80 175 -15 33 -47 103 -70
155 -24 52 -45 97 -46 99 -2 2 -4 -79 -4 -180z"/>
<path d="M760 695 c0 -73 1 -75 24 -75 19 0 25 6 28 27 4 39 28 42 28 4 0 -26
4 -31 25 -31 24 0 25 2 25 75 0 73 -1 75 -25 75 -20 0 -25 -5 -25 -25 0 -16
-6 -25 -15 -25 -9 0 -15 9 -15 25 0 20 -5 25 -25 25 -24 0 -25 -2 -25 -75z"/>
<path d="M920 756 c0 -11 10 -16 30 -16 38 0 39 -17 3 -33 -35 -15 -43 -25
-43 -59 0 -27 1 -28 60 -28 53 0 60 2 60 20 0 16 -7 20 -37 20 l-38 1 35 17
c30 15 35 22 35 52 l0 35 -52 3 c-43 2 -53 0 -53 -12z"/>
<path d="M1130 756 c0 -11 10 -16 30 -16 18 0 30 -5 30 -13 0 -7 -13 -18 -30
-24 -26 -10 -30 -16 -30 -47 l0 -36 60 0 c53 0 60 2 60 19 0 15 -8 21 -37 23
l-38 4 33 13 c30 12 33 17 30 50 l-3 36 -52 3 c-43 2 -53 0 -53 -12z"/>
<path d="M1050 640 c0 -15 7 -20 25 -20 18 0 25 5 25 20 0 15 -7 20 -25 20
-18 0 -25 -5 -25 -20z"/>
<path d="M721 475 c-12 -32 -19 -60 -17 -63 3 -3 8 3 12 12 3 9 16 16 29 16
13 0 26 -7 29 -16 4 -9 9 -15 11 -12 6 5 -24 99 -35 111 -4 5 -18 -17 -29 -48z
m39 -6 c0 -11 -7 -19 -16 -19 -11 0 -14 5 -10 16 3 9 6 20 6 25 0 6 5 7 10 4
6 -3 10 -15 10 -26z"/>
<path d="M907 524 c-4 -4 -7 -31 -7 -60 0 -44 3 -54 20 -59 22 -7 60 2 60 14
0 4 -16 5 -35 3 l-35 -4 0 47 0 47 35 -4 c22 -2 34 0 32 6 -4 13 -59 20 -70
10z"/>
<path d="M1012 468 l-2 -68 35 0 c19 0 35 5 35 10 0 6 -13 10 -30 10 -28 0
-29 1 -33 58 l-3 57 -2 -67z"/>
<path d="M1102 479 c-2 -68 13 -88 56 -73 24 8 27 15 30 62 2 32 -1 52 -7 52
-6 0 -11 -22 -11 -50 0 -49 -1 -50 -30 -50 -28 0 -29 1 -33 58 l-3 57 -2 -56z"/>
<path d="M1220 466 l0 -66 34 0 c46 0 56 16 48 75 -7 49 -8 50 -45 53 l-37 3
0 -65z m68 27 c-2 -11 -14 -19 -31 -21 -22 -3 -27 1 -27 17 0 17 6 21 31 21
24 0 30 -4 27 -17z m2 -53 c0 -16 -7 -20 -30 -20 -23 0 -30 4 -30 20 0 16 7
20 30 20 23 0 30 -4 30 -20z"/>
<path d="M810 465 c0 -30 5 -55 10 -55 6 0 10 25 10 55 0 30 -4 55 -10 55 -5
0 -10 -25 -10 -55z"/>
</g>
</svg>
